<svg width="28" height="28" viewBox="0 0 28 28" fill="none" xmlns="http://www.w3.org/2000/svg">
<rect width="28" height="28" rx="7" fill="#303030"/>
<path fill-rule="evenodd" clip-rule="evenodd" d="M15.9089 19.8507C15.9089 19.8507 16.4181 21.2101 16.8848 21.2952H10.9878C9.79981 21.2952 8.73946 20.6155 8.39977 19.3409L4.96347 9.14449C4.96347 9.14449 4.66663 7.9124 4.19995 7.70001H10.2243C11.4122 7.74255 12.2183 8.16732 12.685 9.73942L15.9089 19.8507Z" fill="white"/>
<path opacity="0.2" fill-rule="evenodd" clip-rule="evenodd" d="M15.9089 19.8507C15.9089 19.8507 16.4181 21.2101 16.8848 21.2952H10.9878C9.79981 21.2952 8.73946 20.6155 8.39977 19.3409L4.96347 9.14449C4.96347 9.14449 4.66663 7.9124 4.19995 7.70001H10.2243C11.4122 7.74255 12.2183 8.16732 12.685 9.73942L15.9089 19.8507Z" fill="url(#paint0_linear_19_603)"/>
<path fill-rule="evenodd" clip-rule="evenodd" d="M12.1336 19.8509C12.1336 19.8509 11.6244 21.2103 11.1577 21.2954H17.0547C18.2427 21.2954 19.303 20.6157 19.6427 19.3411L23.0368 9.14497C23.0368 9.14497 23.3336 7.91289 23.8003 7.7005H17.8182C16.6303 7.7005 15.8668 8.12527 15.4001 9.69737L12.1336 19.8509Z" fill="white"/>
<defs>
<linearGradient id="paint0_linear_19_603" x1="10.5424" y1="6.54428" x2="10.5424" y2="22.4936" gradientUnits="userSpaceOnUse">
<stop stop-color="white" stop-opacity="0"/>
<stop offset="0.33" stop-color="white" stop-opacity="0"/>
<stop offset="0.76" stop-color="#0E1513"/>
<stop offset="1" stop-color="#0E1513"/>
</linearGradient>
</defs>
</svg>
